{"title":"Pharaoh's Army 1995 DVDRip XviD AC3 titler","uid":9028329,"size":954964879,"categoryP":"video","categoryS":"movies","magnet":"?xt=urn:btih:07a189aca9f7396b015b4710881415892ce60479&amp;dn=Pharaoh%27s+Army+1995+DVDRip+XviD+AC3+titler&amp;tr=udp%3A%2F%2Ftracker.openbittorrent.com%3A80&amp;tr=udp%3A%2F%2Fopen.demonii.com%3A1337&amp;tr=udp%3A%2F%2Ftracker.coppersurfer.tk%3A6969&amp;tr=udp%3A%2F%2Fexodus.desync.com%3A6969","seeders":1,"leechers":0,"uploader":"movieZ.freak","files":5,"time":1381366400,"description":"SOURCE: DVD5\n\n &lt;a href=&quot;\nhttp://www.imdb.com/title/tt0114122/&quot; rel=&quot;nofollow&quot; target=&quot;_NEW&quot;&gt;\nhttp://www.imdb.com/title/tt0114122/&lt;/a&gt;\n\n &lt;a href=&quot;\nhttp://www.rottentomatoes.com/m/pharaohs_army/&quot; rel=&quot;nofollow&quot; target=&quot;_NEW&quot;&gt;\nhttp://www.rottentomatoes.com/m/pharaohs_army/&lt;/a&gt;\n\n &lt;a href=&quot;\nhttp://en.wikipedia.org/wiki/Pharaoh%27s_Army&quot; rel=&quot;nofollow&quot; target=&quot;_NEW&quot;&gt;\nhttp://en.wikipedia.org/wiki/Pharaoh%27s_Army&lt;/a&gt;\n\n\n\n- SAMPLE: Yes\n\n- SUBTITLE: English, English HI (hearing impaired)\n\n- LANGUAGE / AUDIO: English\n\n\n\nNOTE: http://someimage.com/0OsI\n--------------------------------\n\n- Most of my sources are some ancient DVDs like this one.\n\n- This is Russian DVD with english audio.\n\n- You can judge the quality, but this is !!! RARE !!!\n\n- If you can find better sources for all 'rare' movies from my account here,\nlet me know. :)\n\n- This is ripped with ENGLISH AUDIO only.\n\n- Enjoy!\n\n\n\nSCREENSHOTS:\n----------------- &lt;a href=&quot;\nhttp://someimage.com/dgCL&quot; rel=&quot;nofollow&quot; target=&quot;_NEW&quot;&gt;\nhttp://someimage.com/dgCL&lt;/a&gt;\n\n\n\nDIRECTOR: Robby Henson\n\n\nCAST:\n--------\nChris Cooper, Patricia Clarkson, Kris Kristofferson, Robert Joy, Richard Tyson, Frank Clem, Huckleberry Fox\n\n\nPLOT:\n-----------\nDuring the American Civil War, a Union Army captain leads his rag-tag cavalry troop up a misty creek to a remote farm to appropriate enemy (Confederate) livestock. The farm is worked by Sarah Anders, whose husband is away fighting for the Confederate Army. Far from the great armies and battlefields, a very private civil war erupts. The Captain and Sarah are pulled apart by the war's undertow into choices they can not fully control or understand. Each character in this drama must decide whether loyalty will be paid in blood. This story has a relevance to current partisan conflicts. Armies are not filled with murdering psychopaths. Good people can be driven to do bad things. The story chronicles the pathology of war, how escalating events can trigger unasked-for tragedy. Based on a true story about a southern child who shot and killed a union soldier\nduring the Civil War.\n\n\nGeneral\n------------\nFormat : AVI\nFormat/Info : Audio Video Interleave\nFile size : 901 MiB\nDuration : 1h 26mn\nOverall bit rate : 1454 Kbps\nWriting application : VirtualDubMod 1.5.4.1\nWriting library : VirtualDub build 35488\n\n\nVideo\n---------\nFormat : MPEG-4 Visual\nFormat profile : Advanced Simple@L5\nFormat settings, BVOP : 1\nFormat settings, QPel : No\nFormat settings, GMC : No warppoints\nFormat settings, Matrix : Custom\nCodec ID : XVID\nCodec ID/Hint : XviD\nDuration : 1h 26mn\nBit rate : 1316 Kbps\nWidth : 512 pixels\nHeight : 384 pixels\nDisplay aspect ratio : 4:3\nFrame rate : 25.000 fps\nColor space : YUV\nChroma subsampling : 4:2:0\nBit depth : 8 bits\nScan type : Progressive\nCompression mode : Lossy\nBits/(Pixel*Frame) : 0.268\nStream size : 815 MiB (91%)\nWriting library : XviD 65\n\n\nAudio\n----------\nFormat : AC-3\nFormat/Info : Audio Coding 3\nMode extension : CM (complete main)\nFormat settings, Endianness : Big\nCodec ID : 2000\nDuration : 1h 26mn\nBit rate mode : Constant\nBit rate : 128 Kbps\nChannel(s) : 2 channels\nChannel positions : Front: L R\nSampling rate : 48.0 KHz\nBit depth : 16 bits\nCompression mode : Lossy\nStream size : 79.3 MiB (9%)\nAlignment : Aligned on interleaves\nInterleave, duration : 40 ms (1.00 video frame)\nInterleave, preload duration : 512 ms\nLanguage : English","torrent":{"xt":"urn:btih:07a189aca9f7396b015b4710881415892ce60479","amp;dn":"Pharaoh%27s+Army+1995+DVDRip+XviD+AC3+titler","amp;tr":["udp%3A%2F%2Ftracker.openbittorrent.com%3A80","udp%3A%2F%2Fopen.demonii.com%3A1337","udp%3A%2F%2Ftracker.coppersurfer.tk%3A6969","udp%3A%2F%2Fexodus.desync.com%3A6969"],"infoHash":"07a189aca9f7396b015b4710881415892ce60479","infoHashBuffer":{"type":"Buffer","data":[7,161,137,172,169,247,57,107,1,91,71,16,136,20,21,137,44,230,4,121]},"announce":[],"urlList":[]}}